<?xml version="1.0" standalone="no"?>
<!DOCTYPE svg PUBLIC "-//W3C//DTD SVG 20010904//EN"
 "http://www.w3.org/TR/2001/REC-SVG-20010904/DTD/svg10.dtd">
<svg version="1.0" xmlns="http://www.w3.org/2000/svg"
 width="160.000000pt" height="160.000000pt" viewBox="0 0 160.000000 160.000000"
 preserveAspectRatio="xMidYMid meet">
<metadata>
Created by potrace 1.10, written by Peter Selinger 2001-2011
</metadata>
<g transform="translate(0.000000,160.000000) scale(0.100000,-0.100000)"
fill="#000000" stroke="none">
<path d="M684 1570 c-110 -29 -280 -98 -326 -134 -23 -17 -51 -46 -61 -64 -17
-29 -18 -38 -7 -83 7 -27 23 -62 35 -77 20 -23 24 -42 28 -127 10 -193 35
-345 58 -345 12 0 12 3 -11 94 -11 43 -20 85 -20 92 0 26 17 14 24 -16 9 -46
26 -36 26 15 0 30 10 66 32 109 l31 64 33 -14 c18 -8 44 -14 56 -15 16 0 10
-5 -19 -16 -25 -8 -43 -21 -43 -30 0 -10 5 -13 18 -8 53 22 94 26 267 26 172
1 211 -3 268 -26 10 -4 17 -3 17 4 0 18 -64 41 -111 41 -69 0 -37 11 40 14 39
2 71 -1 71 -5 0 -5 5 -9 10 -9 6 0 10 7 10 15 0 8 -7 15 -17 15 -9 0 12 14 45
31 63 31 76 44 45 45 -10 1 -76 6 -146 12 -158 15 -267 15 -267 2 0 -5 24 -10
53 -10 86 0 259 -9 300 -16 35 -5 37 -7 20 -18 -29 -20 -137 -47 -213 -53 -39
-3 -70 -10 -70 -16 0 -17 -217 0 -290 24 -36 11 -76 22 -88 24 -13 1 -31 10
-40 19 -15 15 -15 16 0 16 9 0 20 -5 24 -11 4 -8 9 -7 15 2 4 7 25 13 45 14
21 0 39 5 41 12 5 14 -100 7 -130 -9 -9 -5 -22 -6 -27 -3 -6 3 -10 2 -10 -2 0
-5 16 -17 35 -27 19 -11 35 -24 35 -30 -1 -6 -14 -36 -30 -66 -17 -30 -30 -62
-30 -69 0 -9 -3 -11 -9 -5 -12 13 -31 106 -31 155 0 38 2 41 46 61 87 38 455
54 677 28 125 -14 157 -29 121 -55 -10 -7 -28 -21 -39 -30 -19 -16 -19 -16 5
-4 14 7 36 20 49 31 20 15 26 16 32 5 9 -16 -4 -119 -20 -161 -9 -21 -8 -32 0
-43 21 -25 40 42 42 147 2 85 4 97 24 113 12 10 30 43 40 73 17 54 17 57 -2
92 -29 53 -91 95 -210 142 -210 82 -316 96 -451 60z m116 -5 c0 -14 -45 -25
-73 -19 l-32 8 40 7 c58 9 65 10 65 4z m64 -3 c3 -5 18 -7 35 -4 59 8 352
-110 401 -163 19 -21 25 -37 25 -74 0 -34 -7 -58 -25 -84 -26 -38 -40 -47 -40
-24 0 22 -22 38 -36 26 -9 -8 -40 -6 -105 5 -119 21 -341 22 -333 2 6 -16 -64
-26 -181 -25 l-80 0 48 13 c26 7 50 16 54 20 7 7 -68 -1 -140 -15 -68 -13 -67
-13 -68 34 0 31 -2 37 -8 22 -5 -11 -6 -23 -4 -28 2 -4 -7 -21 -20 -37 l-25
-29 -26 49 c-36 66 -34 101 7 144 37 38 151 94 265 132 41 13 76 24 78 24 1 0
-5 -14 -13 -31 -11 -22 -14 -46 -9 -84 3 -29 3 -55 -2 -58 -4 -2 -2 -3 4 -1 6
1 21 -11 33 -27 12 -16 44 -40 72 -54 l50 -26 54 31 c30 17 57 36 60 41 4 5
11 6 17 3 7 -4 8 -2 4 5 -4 6 -3 18 4 26 18 22 23 116 7 145 -11 22 -19 25
-59 22 -31 -2 -49 2 -58 13 -8 9 -8 15 -2 15 6 0 13 -4 16 -8z m-14 -23 c24
-18 33 -20 59 -11 27 9 32 8 41 -8 15 -28 12 -84 -6 -130 -12 -30 -28 -47 -70
-71 l-54 -30 -51 28 c-61 33 -88 81 -89 154 0 57 12 70 51 56 24 -10 33 -8 56
10 35 27 29 27 63 2z m8 -296 c-10 -2 -26 -2 -35 0 -10 3 -2 5 17 5 19 0 27
-2 18 -5z m250 -15 c45 -6 82 -15 82 -21 0 -5 -10 -7 -22 -4 -13 3 -32 7 -43
10 -25 6 -127 17 -182 19 -24 1 -43 6 -43 11 0 10 54 6 208 -15z m-694 -7 c8
-12 -3 -41 -15 -41 -5 0 -9 11 -9 25 0 25 14 34 24 16z m836 -22 c0 -27 -2
-30 -15 -19 -8 7 -15 21 -15 31 0 11 7 19 15 19 10 0 15 -10 15 -31z m-770 17
c0 -2 -7 -6 -15 -10 -8 -3 -15 -1 -15 4 0 6 7 10 15 10 8 0 15 -2 15 -4z"/>
<path d="M642 1425 c0 -16 2 -22 5 -12 2 9 2 23 0 30 -3 6 -5 -1 -5 -18z"/>
<path d="M538 1363 c7 -3 16 -2 19 1 4 3 -2 6 -13 5 -11 0 -14 -3 -6 -6z"/>
<path d="M455 1343 c-6 -17 25 -16 47 1 16 12 15 13 -12 12 -16 -1 -32 -7 -35
-13z"/>
<path d="M820 1536 c0 -2 8 -10 18 -17 15 -13 16 -12 3 4 -13 16 -21 21 -21
13z"/>
<path d="M920 1510 c-13 -8 -12 -10 3 -10 9 0 17 5 17 10 0 12 -1 12 -20 0z"/>
<path d="M628 1183 c7 -3 16 -2 19 1 4 3 -2 6 -13 5 -11 0 -14 -3 -6 -6z"/>
<path d="M1131 1091 c-11 -7 -8 -17 12 -52 36 -63 58 -146 53 -199 -3 -25 -3
-36 0 -25 3 11 12 39 20 63 17 51 18 76 3 67 -6 -4 -13 3 -16 16 -3 12 -19 46
-34 74 -15 29 -25 55 -22 59 9 9 0 7 -16 -3z"/>
<path d="M680 1018 c0 -20 229 -23 249 -3 6 7 -37 10 -120 10 -71 0 -129 -3
-129 -7z"/>
<path d="M575 976 c-31 -13 -85 -69 -85 -87 0 -5 19 11 43 36 37 39 49 45 83
45 47 0 78 -25 102 -79 8 -20 17 -30 19 -23 6 17 -27 71 -57 93 -36 26 -70 31
-105 15z"/>
<path d="M970 972 c-36 -18 -80 -74 -80 -101 0 -9 13 6 28 33 15 27 33 52 41
54 11 4 10 -1 -2 -19 -22 -31 -21 -61 1 -90 39 -47 122 -16 122 45 0 36 -24
59 -71 66 l-44 7 42 2 c34 1 49 -5 78 -30 19 -17 35 -37 35 -45 0 -8 5 -14 10
-14 32 0 -29 76 -77 96 -41 18 -41 18 -83 -4z m36 -33 c10 -17 -13 -36 -27
-22 -12 12 -4 33 11 33 5 0 12 -5 16 -11z m25 -36 c-9 -33 -29 -39 -56 -19
-20 15 -20 15 0 10 13 -3 28 2 39 15 24 27 26 26 17 -6z m19 -49 c-17 -19 -54
-18 -71 3 -13 15 -12 15 9 4 29 -15 61 1 63 32 2 22 2 22 6 -1 3 -13 -1 -30
-7 -38z"/>
<path d="M570 940 c-36 -36 -22 -89 30 -110 28 -11 34 -11 58 7 35 26 41 74
13 102 -27 27 -75 27 -101 1z m46 -1 c10 -17 -13 -36 -27 -22 -12 12 -4 33 11
33 5 0 12 -5 16 -11z m52 -43 c2 -15 -2 -34 -9 -42 -15 -19 -53 -18 -69 2 -12
13 -10 14 13 3 21 -9 30 -9 42 1 17 14 21 60 4 60 -6 0 -8 -8 -4 -19 3 -11 0
-21 -9 -24 -18 -7 -56 2 -56 14 0 5 6 6 13 3 7 -2 22 5 32 16 24 26 39 21 43
-14z"/>
<path d="M1223 830 c-20 -79 -16 -121 6 -58 12 34 27 138 19 138 -2 0 -13 -36
-25 -80z"/>
<path d="M520 830 c19 -16 41 -30 49 -30 8 0 -5 14 -27 30 -53 38 -68 38 -22
0z"/>
<path d="M1115 850 c-3 -6 -23 -19 -43 -30 -20 -10 -30 -19 -22 -20 15 0 90
46 90 55 0 9 -19 5 -25 -5z"/>
<path d="M695 825 c-22 -14 -33 -25 -25 -25 8 0 29 11 45 25 38 31 31 31 -20
0z"/>
<path d="M913 825 c15 -14 35 -25 44 -25 19 0 19 0 -32 28 l-40 23 28 -26z"/>
<path d="M431 804 c0 -11 3 -14 6 -6 3 7 2 16 -1 19 -3 4 -6 -2 -5 -13z"/>
<path d="M746 734 c-8 -21 17 -50 50 -58 37 -10 84 19 84 50 0 14 -4 23 -10
19 -6 -4 -8 -10 -5 -15 9 -15 -24 -31 -57 -28 -22 2 -36 10 -44 26 -10 20 -12
21 -18 6z"/>
<path d="M410 697 c0 -19 -3 -49 -6 -66 -6 -26 -4 -31 14 -31 11 0 23 -7 26
-16 5 -14 9 -14 22 -3 13 10 17 10 25 -2 5 -8 9 -18 9 -22 0 -5 5 -5 11 -1 6
3 29 -12 50 -35 22 -23 51 -48 64 -57 31 -20 31 -36 3 -67 -17 -18 -38 -25
-81 -30 -103 -10 -212 -77 -250 -152 -17 -35 -42 -124 -50 -178 -6 -36 -5 -37
21 -30 34 8 36 11 51 87 10 49 10 69 1 85 -10 19 -6 27 32 67 23 25 57 53 74
63 27 16 32 17 40 3 8 -12 14 -13 33 -3 13 7 20 18 17 27 -3 8 1 14 8 14 9 0
12 -7 9 -21 -4 -14 -32 -33 -87 -59 -110 -52 -118 -60 -107 -96 5 -16 15 -59
21 -97 9 -46 17 -67 27 -67 8 0 11 5 7 11 -4 6 -15 48 -25 93 l-19 81 28 23
c15 12 54 32 86 45 43 16 64 31 78 54 23 39 52 36 37 -4 -5 -14 -10 -46 -12
-72 l-2 -46 -60 -3 c-43 -1 -64 -7 -73 -20 -11 -15 -9 -20 13 -39 23 -20 36
-23 121 -21 52 1 97 5 100 10 3 4 -9 8 -27 8 -40 0 -27 19 25 38 35 13 37 12
70 -20 63 -63 60 -63 101 0 21 31 55 77 75 102 21 25 47 63 58 85 16 32 22 37
27 23 4 -10 13 -18 20 -18 7 0 15 -10 19 -22 6 -26 8 -168 2 -168 -2 0 -28 16
-58 35 l-53 35 -3 -25 c-2 -14 -12 -30 -24 -36 -11 -6 -37 -27 -59 -46 -31
-28 -39 -43 -39 -69 0 -19 4 -34 8 -34 5 0 7 13 4 28 -3 24 3 34 36 60 21 17
41 30 43 27 3 -2 13 9 24 26 24 36 30 36 79 3 41 -28 55 -23 57 21 0 13 3 15
6 6 3 -7 0 -31 -7 -52 -16 -48 0 -77 58 -103 l40 -18 41 27 c48 33 59 61 37
103 -9 17 -16 40 -16 50 0 11 -6 24 -12 29 -15 11 -108 11 -124 0 -8 -4 -14 6
-18 31 -4 20 -9 49 -12 64 -7 36 18 38 34 3 8 -17 38 -37 97 -64 47 -22 88
-47 91 -56 4 -8 2 -28 -4 -43 -6 -15 -13 -49 -17 -75 -5 -37 -12 -50 -28 -57
-21 -8 -21 -9 3 -9 24 -1 26 4 46 94 24 112 28 106 -89 160 -65 30 -97 56 -97
79 0 14 29 -8 33 -25 6 -21 43 -26 49 -7 7 19 102 -56 120 -94 21 -44 35 -93
43 -150 7 -47 7 -48 -21 -48 -38 0 -27 -6 23 -13 l41 -5 -5 37 c-3 20 -17 71
-30 115 -41 132 -118 190 -278 210 -25 3 -45 13 -54 26 -7 11 -20 20 -27 20
-26 0 -14 20 46 77 56 52 71 73 52 73 -4 0 -40 -32 -80 -71 -66 -64 -77 -71
-130 -80 -38 -6 -74 -5 -110 2 -46 9 -64 20 -128 82 -42 40 -81 72 -87 72 -14
0 -59 68 -79 120 -21 53 -48 60 -48 12z m49 -64 c10 -19 9 -22 -4 -17 -8 4
-15 15 -15 27 0 23 2 22 19 -10z m290 -235 c51 -9 85 -8 172 8 20 3 39 2 42
-3 12 -20 -12 -71 -74 -155 l-63 -86 -43 47 c-63 68 -112 142 -119 180 -6 31
-5 34 12 27 10 -4 43 -12 73 -18z m-5 -164 c38 -42 66 -81 66 -93 0 -12 -3
-21 -8 -21 -15 0 -82 62 -82 76 0 21 -17 17 -77 -16 -29 -16 -55 -30 -58 -30
-8 0 -6 113 4 146 5 17 19 43 32 58 l22 26 17 -38 c10 -20 47 -69 84 -108z
m-244 96 c0 -5 -8 -10 -17 -10 -15 0 -16 2 -3 10 19 12 20 12 20 0z m647 -6
c-3 -3 -12 -4 -19 -1 -8 3 -5 6 6 6 11 1 17 -2 13 -5z m45 -137 c-2 -9 4 -27
13 -39 27 -39 19 -73 -22 -98 -36 -21 -38 -21 -75 -4 -44 20 -56 50 -38 94 7
16 10 36 7 44 -8 21 -2 23 61 22 49 -1 57 -4 54 -19z m-622 -16 c0 -5 3 -16 6
-25 5 -12 0 -16 -17 -15 -23 0 -23 1 -4 9 14 6 -1 9 -47 9 -54 1 -68 4 -68 16
0 12 14 15 65 15 36 0 65 -4 65 -9z m-255 -13 c-2 -7 -9 -39 -15 -70 -7 -34
-17 -58 -24 -58 -7 0 -13 7 -13 15 0 8 4 15 8 15 4 0 6 9 4 20 -2 11 0 22 6
25 5 4 9 19 9 36 0 19 5 29 15 29 8 0 13 -6 10 -12z"/>
<path d="M1160 185 c0 -3 6 -14 12 -25 10 -16 10 -24 1 -39 -10 -17 -9 -19 13
-17 13 0 23 3 21 6 -1 3 -9 22 -17 43 -8 20 -18 37 -22 37 -4 0 -8 -2 -8 -5z"/>
<path d="M1117 163 c-11 -10 -8 -45 2 -38 6 3 9 14 8 25 -1 23 -1 22 -10 13z"/>
<path d="M1147 143 c-4 -3 -7 -11 -7 -17 0 -6 5 -5 12 2 6 6 9 14 7 17 -3 3
-9 2 -12 -2z"/>
<path d="M1083 86 c5 -16 66 -31 77 -20 6 6 -8 14 -35 20 -32 7 -44 7 -42 0z"/>
<path d="M1149 660 c-17 -39 -38 -75 -45 -81 -8 -6 -11 -16 -8 -21 3 -5 14 -2
24 7 12 11 20 13 25 6 11 -18 35 -12 35 8 0 15 5 18 22 13 19 -5 21 -2 15 28
-4 18 -7 50 -7 71 0 61 -24 48 -61 -31z m21 -40 c-16 -31 -23 -18 -8 15 7 15
14 23 16 17 2 -6 -2 -21 -8 -32z"/>
<path d="M710 594 c0 -3 16 -12 35 -20 47 -19 113 -17 155 6 l35 19 -112 1
c-62 0 -113 -2 -113 -6z"/>
<path d="M770 536 c0 -2 11 -6 25 -8 13 -3 22 -1 19 3 -5 9 -44 13 -44 5z"/>
<path d="M835 530 c4 -6 11 -8 16 -5 14 9 11 15 -7 15 -8 0 -12 -5 -9 -10z"/>
<path d="M427 104 c-4 -13 -2 -33 5 -49 10 -22 9 -28 -3 -36 -11 -7 -11 -9 4
-9 10 0 17 8 17 20 0 11 4 20 9 20 17 0 71 -22 71 -30 0 -10 29 -6 63 8 16 7
33 12 38 12 5 0 9 5 9 10 0 13 -3 13 -49 -6 -36 -14 -42 -14 -70 0 -16 9 -41
16 -55 16 -21 0 -25 5 -28 33 -3 28 -4 29 -11 11z"/>
<path d="M670 85 c0 -14 -3 -25 -7 -25 -5 0 -8 -11 -8 -25 0 -36 8 -31 23 15
15 48 15 60 2 60 -5 0 -10 -11 -10 -25z"/>
<path d="M830 41 c0 -11 4 -22 9 -25 12 -8 34 21 26 34 -11 17 -35 11 -35 -9z"/>
<path d="M880 20 c-13 -8 -12 -10 3 -10 9 0 17 5 17 10 0 12 -1 12 -20 0z"/>
<path d="M1040 20 c-24 -8 -23 -8 8 -9 20 -1 31 3 27 9 -3 6 -7 10 -8 9 -1 -1
-13 -5 -27 -9z"/>
<path d="M318 13 c6 -2 18 -2 25 0 6 3 1 5 -13 5 -14 0 -19 -2 -12 -5z"/>
<path d="M698 13 c12 -2 30 -2 40 0 9 3 -1 5 -23 4 -22 0 -30 -2 -17 -4z"/>
<path d="M768 13 c7 -3 16 -2 19 1 4 3 -2 6 -13 5 -11 0 -14 -3 -6 -6z"/>
<path d="M928 13 c6 -2 18 -2 25 0 6 3 1 5 -13 5 -14 0 -19 -2 -12 -5z"/>
<path d="M978 13 c6 -2 18 -2 25 0 6 3 1 5 -13 5 -14 0 -19 -2 -12 -5z"/>
</g>
</svg>
