<?xml version="1.0" standalone="no"?>
<!DOCTYPE svg PUBLIC "-//W3C//DTD SVG 20010904//EN"
 "http://www.w3.org/TR/2001/REC-SVG-20010904/DTD/svg10.dtd">
<svg version="1.0" xmlns="http://www.w3.org/2000/svg"
 width="160.000000pt" height="160.000000pt" viewBox="0 0 160.000000 160.000000"
 preserveAspectRatio="xMidYMid meet">
<metadata>
Created by potrace 1.14, written by Peter Selinger 2001-2017
</metadata>
<g transform="translate(0.000000,160.000000) scale(0.100000,-0.100000)"
fill="#000000" stroke="none">
<path d="M670 1567 c-201 -55 -347 -132 -377 -198 -20 -45 7 -152 42 -165 9
-4 13 -27 13 -87 -1 -45 3 -95 7 -112 4 -16 9 -46 10 -65 7 -93 16 -142 33
-186 15 -38 17 -55 9 -85 -10 -41 -4 -74 12 -64 6 3 15 -3 21 -14 6 -12 16
-18 26 -14 8 3 24 -3 34 -12 11 -10 20 -15 20 -10 0 4 20 -12 44 -36 23 -24
56 -53 72 -65 l28 -21 -32 -31 c-20 -19 -44 -32 -60 -33 -121 -4 -228 -63
-275 -154 -16 -32 -42 -126 -50 -182 l-5 -32 564 0 564 0 -6 27 c-3 15 -8 42
-10 59 -8 48 -40 131 -65 167 -39 57 -121 97 -223 109 -38 5 -55 13 -78 39
l-28 32 32 25 c18 14 48 43 67 63 19 21 37 35 42 33 4 -3 11 0 14 6 4 6 18 8
31 5 17 -5 26 -2 30 9 4 8 14 15 24 15 16 0 17 8 13 70 -3 42 -1 76 5 83 6 7
13 26 16 42 3 17 8 41 11 55 2 13 7 42 10 65 4 22 12 60 19 86 8 25 14 80 14
123 0 66 3 80 20 92 23 16 53 99 47 129 -2 11 -4 25 -4 31 -2 24 -68 77 -136
109 -69 33 -221 89 -273 101 -75 18 -188 14 -272 -9z"/>
</g>
</svg>
